<svg width="135" height="115" viewBox="0 0 135 115" fill="none" xmlns="http://www.w3.org/2000/svg">
<g id="element" opacity="0.3">
<g id="Group">
<mask id="mask0_21_5" style="mask-type:alpha" maskUnits="userSpaceOnUse" x="0" y="0" width="11" height="11">
<g id="SVGID 141">
<g id="Group_2">
<path id="Vector" d="M5.35847 10.425C8.31788 10.425 10.717 8.09121 10.717 5.21245C10.717 2.33368 8.31788 0 5.35847 0C2.39907 0 0 2.33368 0 5.21245C0 8.09121 2.39907 10.425 5.35847 10.425Z" fill="url(#paint0_linear_21_5)"/>
</g>
</g>
</mask>
<g mask="url(#mask0_21_5)">
<path id="Vector_2" d="M5.35847 10.425C8.31788 10.425 10.717 8.09121 10.717 5.21245C10.717 2.33368 8.31788 0 5.35847 0C2.39907 0 0 2.33368 0 5.21245C0 8.09121 2.39907 10.425 5.35847 10.425Z" fill="url(#paint1_linear_21_5)"/>
</g>
</g>
<g id="Group_3">
<mask id="mask1_21_5" style="mask-type:alpha" maskUnits="userSpaceOnUse" x="31" y="0" width="11" height="11">
<g id="SVGID 144">
<g id="Group_4">
<path id="Vector_3" d="M36.393 10.425C39.3524 10.425 41.7515 8.09121 41.7515 5.21245C41.7515 2.33368 39.3524 0 36.393 0C33.4336 0 31.0345 2.33368 31.0345 5.21245C31.0345 8.09121 33.4336 10.425 36.393 10.425Z" fill="url(#paint2_linear_21_5)"/>
</g>
</g>
</mask>
<g mask="url(#mask1_21_5)">
<path id="Vector_4" d="M36.393 10.425C39.3524 10.425 41.7515 8.09121 41.7515 5.21245C41.7515 2.33368 39.3524 0 36.393 0C33.4336 0 31.0345 2.33368 31.0345 5.21245C31.0345 8.09121 33.4336 10.425 36.393 10.425Z" fill="url(#paint3_linear_21_5)"/>
</g>
</g>
<g id="Group_5">
<mask id="mask2_21_5" style="mask-type:alpha" maskUnits="userSpaceOnUse" x="62" y="0" width="11" height="11">
<g id="SVGID 147">
<g id="Group_6">
<path id="Vector_5" d="M67.4275 10.425C70.3869 10.425 72.786 8.09121 72.786 5.21245C72.786 2.33368 70.3869 0 67.4275 0C64.4681 0 62.069 2.33368 62.069 5.21245C62.069 8.09121 64.4681 10.425 67.4275 10.425Z" fill="url(#paint4_linear_21_5)"/>
</g>
</g>
</mask>
<g mask="url(#mask2_21_5)">
<path id="Vector_6" d="M67.4275 10.425C70.3869 10.425 72.786 8.09121 72.786 5.21245C72.786 2.33368 70.3869 0 67.4275 0C64.4681 0 62.069 2.33368 62.069 5.21245C62.069 8.09121 64.4681 10.425 67.4275 10.425Z" fill="url(#paint5_linear_21_5)"/>
</g>
</g>
<g id="Group_7">
<mask id="mask3_21_5" style="mask-type:alpha" maskUnits="userSpaceOnUse" x="93" y="0" width="11" height="11">
<g id="SVGID 150">
<g id="Group_8">
<path id="Vector_7" d="M98.4621 10.425C101.421 10.425 103.821 8.09121 103.821 5.21245C103.821 2.33368 101.421 0 98.4621 0C95.5027 0 93.1036 2.33368 93.1036 5.21245C93.1036 8.09121 95.5027 10.425 98.4621 10.425Z" fill="url(#paint6_linear_21_5)"/>
</g>
</g>
</mask>
<g mask="url(#mask3_21_5)">
<path id="Vector_8" d="M98.4621 10.425C101.421 10.425 103.821 8.09121 103.821 5.21245C103.821 2.33368 101.421 0 98.4621 0C95.5027 0 93.1036 2.33368 93.1036 5.21245C93.1036 8.09121 95.5027 10.425 98.4621 10.425Z" fill="url(#paint7_linear_21_5)"/>
</g>
</g>
<g id="Group_9">
<mask id="mask4_21_5" style="mask-type:alpha" maskUnits="userSpaceOnUse" x="124" y="0" width="11" height="11">
<g id="SVGID 153">
<g id="Group_10">
<path id="Vector_9" d="M129.497 10.425C132.456 10.425 134.855 8.09121 134.855 5.21245C134.855 2.33368 132.456 0 129.497 0C126.537 0 124.138 2.33368 124.138 5.21245C124.138 8.09121 126.537 10.425 129.497 10.425Z" fill="url(#paint8_linear_21_5)"/>
</g>
</g>
</mask>
<g mask="url(#mask4_21_5)">
<path id="Vector_10" d="M129.497 10.425C132.456 10.425 134.855 8.09121 134.855 5.21245C134.855 2.33368 132.456 0 129.497 0C126.537 0 124.138 2.33368 124.138 5.21245C124.138 8.09121 126.537 10.425 129.497 10.425Z" fill="url(#paint9_linear_21_5)"/>
</g>
</g>
<g id="Group_11">
<mask id="mask5_21_5" style="mask-type:alpha" maskUnits="userSpaceOnUse" x="0" y="26" width="11" height="11">
<g id="SVGID 156">
<g id="Group_12">
<path id="Vector_11" d="M5.35847 36.5958C8.31788 36.5958 10.717 34.2621 10.717 31.3834C10.717 28.5046 8.31788 26.171 5.35847 26.171C2.39907 26.171 0 28.5046 0 31.3834C0 34.2621 2.39907 36.5958 5.35847 36.5958Z" fill="url(#paint10_linear_21_5)"/>
</g>
</g>
</mask>
<g mask="url(#mask5_21_5)">
<path id="Vector_12" d="M5.35847 36.5958C8.31788 36.5958 10.717 34.2621 10.717 31.3834C10.717 28.5046 8.31788 26.171 5.35847 26.171C2.39907 26.171 0 28.5046 0 31.3834C0 34.2621 2.39907 36.5958 5.35847 36.5958Z" fill="url(#paint11_linear_21_5)"/>
</g>
</g>
<g id="Group_13">
<mask id="mask6_21_5" style="mask-type:alpha" maskUnits="userSpaceOnUse" x="31" y="26" width="11" height="11">
<g id="SVGID 159">
<g id="Group_14">
<path id="Vector_13" d="M36.393 36.5958C39.3524 36.5958 41.7515 34.2621 41.7515 31.3834C41.7515 28.5046 39.3524 26.171 36.393 26.171C33.4336 26.171 31.0345 28.5046 31.0345 31.3834C31.0345 34.2621 33.4336 36.5958 36.393 36.5958Z" fill="url(#paint12_linear_21_5)"/>
</g>
</g>
</mask>
<g mask="url(#mask6_21_5)">
<path id="Vector_14" d="M36.393 36.5958C39.3524 36.5958 41.7515 34.2621 41.7515 31.3834C41.7515 28.5046 39.3524 26.171 36.393 26.171C33.4336 26.171 31.0345 28.5046 31.0345 31.3834C31.0345 34.2621 33.4336 36.5958 36.393 36.5958Z" fill="url(#paint13_linear_21_5)"/>
</g>
</g>
<g id="Group_15">
<mask id="mask7_21_5" style="mask-type:alpha" maskUnits="userSpaceOnUse" x="62" y="26" width="11" height="11">
<g id="SVGID 162">
<g id="Group_16">
<path id="Vector_15" d="M67.4275 36.5958C70.3869 36.5958 72.786 34.2621 72.786 31.3834C72.786 28.5046 70.3869 26.171 67.4275 26.171C64.4681 26.171 62.069 28.5046 62.069 31.3834C62.069 34.2621 64.4681 36.5958 67.4275 36.5958Z" fill="url(#paint14_linear_21_5)"/>
</g>
</g>
</mask>
<g mask="url(#mask7_21_5)">
<path id="Vector_16" d="M67.4275 36.5958C70.3869 36.5958 72.786 34.2621 72.786 31.3834C72.786 28.5046 70.3869 26.171 67.4275 26.171C64.4681 26.171 62.069 28.5046 62.069 31.3834C62.069 34.2621 64.4681 36.5958 67.4275 36.5958Z" fill="url(#paint15_linear_21_5)"/>
</g>
</g>
<g id="Group_17">
<mask id="mask8_21_5" style="mask-type:alpha" maskUnits="userSpaceOnUse" x="93" y="26" width="11" height="11">
<g id="SVGID 165">
<g id="Group_18">
<path id="Vector_17" d="M98.4621 36.5958C101.421 36.5958 103.821 34.2621 103.821 31.3834C103.821 28.5046 101.421 26.171 98.4621 26.171C95.5027 26.171 93.1036 28.5046 93.1036 31.3834C93.1036 34.2621 95.5027 36.5958 98.4621 36.5958Z" fill="url(#paint16_linear_21_5)"/>
</g>
</g>
</mask>
<g mask="url(#mask8_21_5)">
<path id="Vector_18" d="M98.4621 36.5958C101.421 36.5958 103.821 34.2621 103.821 31.3834C103.821 28.5046 101.421 26.171 98.4621 26.171C95.5027 26.171 93.1036 28.5046 93.1036 31.3834C93.1036 34.2621 95.5027 36.5958 98.4621 36.5958Z" fill="url(#paint17_linear_21_5)"/>
</g>
</g>
<g id="Group_19">
<mask id="mask9_21_5" style="mask-type:alpha" maskUnits="userSpaceOnUse" x="124" y="26" width="11" height="11">
<g id="SVGID 168">
<g id="Group_20">
<path id="Vector_19" d="M129.497 36.5958C132.456 36.5958 134.855 34.2621 134.855 31.3834C134.855 28.5046 132.456 26.171 129.497 26.171C126.537 26.171 124.138 28.5046 124.138 31.3834C124.138 34.2621 126.537 36.5958 129.497 36.5958Z" fill="url(#paint18_linear_21_5)"/>
</g>
</g>
</mask>
<g mask="url(#mask9_21_5)">
<path id="Vector_20" d="M129.497 36.5958C132.456 36.5958 134.855 34.2621 134.855 31.3834C134.855 28.5046 132.456 26.171 129.497 26.171C126.537 26.171 124.138 28.5046 124.138 31.3834C124.138 34.2621 126.537 36.5958 129.497 36.5958Z" fill="url(#paint19_linear_21_5)"/>
</g>
</g>
<g id="Group_21">
<mask id="mask10_21_5" style="mask-type:alpha" maskUnits="userSpaceOnUse" x="0" y="52" width="11" height="11">
<g id="SVGID 171">
<g id="Group_22">
<path id="Vector_21" d="M5.35847 62.7125C8.31788 62.7125 10.717 60.3788 10.717 57.5C10.717 54.6212 8.31788 52.2875 5.35847 52.2875C2.39907 52.2875 0 54.6212 0 57.5C0 60.3788 2.39907 62.7125 5.35847 62.7125Z" fill="url(#paint20_linear_21_5)"/>
</g>
</g>
</mask>
<g mask="url(#mask10_21_5)">
<path id="Vector_22" d="M5.35847 62.7125C8.31788 62.7125 10.717 60.3788 10.717 57.5C10.717 54.6212 8.31788 52.2875 5.35847 52.2875C2.39907 52.2875 0 54.6212 0 57.5C0 60.3788 2.39907 62.7125 5.35847 62.7125Z" fill="url(#paint21_linear_21_5)"/>
</g>
</g>
<g id="Group_23">
<mask id="mask11_21_5" style="mask-type:alpha" maskUnits="userSpaceOnUse" x="31" y="52" width="11" height="11">
<g id="SVGID 174">
<g id="Group_24">
<path id="Vector_23" d="M36.393 62.7125C39.3524 62.7125 41.7515 60.3788 41.7515 57.5C41.7515 54.6212 39.3524 52.2875 36.393 52.2875C33.4336 52.2875 31.0345 54.6212 31.0345 57.5C31.0345 60.3788 33.4336 62.7125 36.393 62.7125Z" fill="url(#paint22_linear_21_5)"/>
</g>
</g>
</mask>
<g mask="url(#mask11_21_5)">
<path id="Vector_24" d="M36.393 62.7125C39.3524 62.7125 41.7515 60.3788 41.7515 57.5C41.7515 54.6212 39.3524 52.2875 36.393 52.2875C33.4336 52.2875 31.0345 54.6212 31.0345 57.5C31.0345 60.3788 33.4336 62.7125 36.393 62.7125Z" fill="url(#paint23_linear_21_5)"/>
</g>
</g>
<g id="Group_25">
<mask id="mask12_21_5" style="mask-type:alpha" maskUnits="userSpaceOnUse" x="62" y="52" width="11" height="11">
<g id="SVGID 177">
<g id="Group_26">
<path id="Vector_25" d="M67.4275 62.7125C70.3869 62.7125 72.786 60.3788 72.786 57.5C72.786 54.6212 70.3869 52.2875 67.4275 52.2875C64.4681 52.2875 62.069 54.6212 62.069 57.5C62.069 60.3788 64.4681 62.7125 67.4275 62.7125Z" fill="url(#paint24_linear_21_5)"/>
</g>
</g>
</mask>
<g mask="url(#mask12_21_5)">
<path id="Vector_26" d="M67.4275 62.7125C70.3869 62.7125 72.786 60.3788 72.786 57.5C72.786 54.6212 70.3869 52.2875 67.4275 52.2875C64.4681 52.2875 62.069 54.6212 62.069 57.5C62.069 60.3788 64.4681 62.7125 67.4275 62.7125Z" fill="url(#paint25_linear_21_5)"/>
</g>
</g>
<g id="Group_27">
<mask id="mask13_21_5" style="mask-type:alpha" maskUnits="userSpaceOnUse" x="93" y="52" width="11" height="11">
<g id="SVGID 180">
<g id="Group_28">
<path id="Vector_27" d="M98.4621 62.7125C101.421 62.7125 103.821 60.3788 103.821 57.5C103.821 54.6212 101.421 52.2875 98.4621 52.2875C95.5027 52.2875 93.1036 54.6212 93.1036 57.5C93.1036 60.3788 95.5027 62.7125 98.4621 62.7125Z" fill="url(#paint26_linear_21_5)"/>
</g>
</g>
</mask>
<g mask="url(#mask13_21_5)">
<path id="Vector_28" d="M98.4621 62.7125C101.421 62.7125 103.821 60.3788 103.821 57.5C103.821 54.6212 101.421 52.2875 98.4621 52.2875C95.5027 52.2875 93.1036 54.6212 93.1036 57.5C93.1036 60.3788 95.5027 62.7125 98.4621 62.7125Z" fill="url(#paint27_linear_21_5)"/>
</g>
</g>
<g id="Group_29">
<mask id="mask14_21_5" style="mask-type:alpha" maskUnits="userSpaceOnUse" x="124" y="52" width="11" height="11">
<g id="SVGID 183">
<g id="Group_30">
<path id="Vector_29" d="M129.497 62.7125C132.456 62.7125 134.855 60.3788 134.855 57.5C134.855 54.6212 132.456 52.2875 129.497 52.2875C126.537 52.2875 124.138 54.6212 124.138 57.5C124.138 60.3788 126.537 62.7125 129.497 62.7125Z" fill="url(#paint28_linear_21_5)"/>
</g>
</g>
</mask>
<g mask="url(#mask14_21_5)">
<path id="Vector_30" d="M129.497 62.7125C132.456 62.7125 134.855 60.3788 134.855 57.5C134.855 54.6212 132.456 52.2875 129.497 52.2875C126.537 52.2875 124.138 54.6212 124.138 57.5C124.138 60.3788 126.537 62.7125 129.497 62.7125Z" fill="url(#paint29_linear_21_5)"/>
</g>
</g>
<g id="Group_31">
<mask id="mask15_21_5" style="mask-type:alpha" maskUnits="userSpaceOnUse" x="0" y="78" width="11" height="11">
<g id="SVGID 186">
<g id="Group_32">
<path id="Vector_31" d="M5.35847 88.8834C8.31788 88.8834 10.717 86.5496 10.717 83.6709C10.717 80.7921 8.31788 78.4584 5.35847 78.4584C2.39907 78.4584 0 80.7921 0 83.6709C0 86.5496 2.39907 88.8834 5.35847 88.8834Z" fill="url(#paint30_linear_21_5)"/>
</g>
</g>
</mask>
<g mask="url(#mask15_21_5)">
<path id="Vector_32" d="M5.35847 88.8834C8.31788 88.8834 10.717 86.5496 10.717 83.6709C10.717 80.7921 8.31788 78.4584 5.35847 78.4584C2.39907 78.4584 0 80.7921 0 83.6709C0 86.5496 2.39907 88.8834 5.35847 88.8834Z" fill="url(#paint31_linear_21_5)"/>
</g>
</g>
<g id="Group_33">
<mask id="mask16_21_5" style="mask-type:alpha" maskUnits="userSpaceOnUse" x="31" y="78" width="11" height="11">
<g id="SVGID 189">
<g id="Group_34">
<path id="Vector_33" d="M36.393 88.8834C39.3524 88.8834 41.7515 86.5496 41.7515 83.6709C41.7515 80.7921 39.3524 78.4584 36.393 78.4584C33.4336 78.4584 31.0345 80.7921 31.0345 83.6709C31.0345 86.5496 33.4336 88.8834 36.393 88.8834Z" fill="url(#paint32_linear_21_5)"/>
</g>
</g>
</mask>
<g mask="url(#mask16_21_5)">
<path id="Vector_34" d="M36.393 88.8834C39.3524 88.8834 41.7515 86.5496 41.7515 83.6709C41.7515 80.7921 39.3524 78.4584 36.393 78.4584C33.4336 78.4584 31.0345 80.7921 31.0345 83.6709C31.0345 86.5496 33.4336 88.8834 36.393 88.8834Z" fill="url(#paint33_linear_21_5)"/>
</g>
</g>
<g id="Group_35">
<mask id="mask17_21_5" style="mask-type:alpha" maskUnits="userSpaceOnUse" x="62" y="78" width="11" height="11">
<g id="SVGID 192">
<g id="Group_36">
<path id="Vector_35" d="M67.4275 88.8834C70.3869 88.8834 72.786 86.5496 72.786 83.6709C72.786 80.7921 70.3869 78.4584 67.4275 78.4584C64.4681 78.4584 62.069 80.7921 62.069 83.6709C62.069 86.5496 64.4681 88.8834 67.4275 88.8834Z" fill="url(#paint34_linear_21_5)"/>
</g>
</g>
</mask>
<g mask="url(#mask17_21_5)">
<path id="Vector_36" d="M67.4275 88.8834C70.3869 88.8834 72.786 86.5496 72.786 83.6709C72.786 80.7921 70.3869 78.4584 67.4275 78.4584C64.4681 78.4584 62.069 80.7921 62.069 83.6709C62.069 86.5496 64.4681 88.8834 67.4275 88.8834Z" fill="url(#paint35_linear_21_5)"/>
</g>
</g>
<g id="Group_37">
<mask id="mask18_21_5" style="mask-type:alpha" maskUnits="userSpaceOnUse" x="93" y="78" width="11" height="11">
<g id="SVGID 195">
<g id="Group_38">
<path id="Vector_37" d="M98.4621 88.8834C101.421 88.8834 103.821 86.5496 103.821 83.6709C103.821 80.7921 101.421 78.4584 98.4621 78.4584C95.5027 78.4584 93.1036 80.7921 93.1036 83.6709C93.1036 86.5496 95.5027 88.8834 98.4621 88.8834Z" fill="url(#paint36_linear_21_5)"/>
</g>
</g>
</mask>
<g mask="url(#mask18_21_5)">
<path id="Vector_38" d="M98.4621 88.8834C101.421 88.8834 103.821 86.5496 103.821 83.6709C103.821 80.7921 101.421 78.4584 98.4621 78.4584C95.5027 78.4584 93.1036 80.7921 93.1036 83.6709C93.1036 86.5496 95.5027 88.8834 98.4621 88.8834Z" fill="url(#paint37_linear_21_5)"/>
</g>
</g>
<g id="Group_39">
<mask id="mask19_21_5" style="mask-type:alpha" maskUnits="userSpaceOnUse" x="124" y="78" width="11" height="11">
<g id="SVGID 198">
<g id="Group_40">
<path id="Vector_39" d="M129.497 88.8834C132.456 88.8834 134.855 86.5496 134.855 83.6709C134.855 80.7921 132.456 78.4584 129.497 78.4584C126.537 78.4584 124.138 80.7921 124.138 83.6709C124.138 86.5496 126.537 88.8834 129.497 88.8834Z" fill="url(#paint38_linear_21_5)"/>
</g>
</g>
</mask>
<g mask="url(#mask19_21_5)">
<path id="Vector_40" d="M129.497 88.8834C132.456 88.8834 134.855 86.5496 134.855 83.6709C134.855 80.7921 132.456 78.4584 129.497 78.4584C126.537 78.4584 124.138 80.7921 124.138 83.6709C124.138 86.5496 126.537 88.8834 129.497 88.8834Z" fill="url(#paint39_linear_21_5)"/>
</g>
</g>
<g id="Group_41">
<mask id="mask20_21_5" style="mask-type:alpha" maskUnits="userSpaceOnUse" x="0" y="104" width="11" height="11">
<g id="SVGID 201">
<g id="Group_42">
<path id="Vector_41" d="M5.35847 115C8.31788 115 10.717 112.666 10.717 109.788C10.717 106.909 8.31788 104.575 5.35847 104.575C2.39907 104.575 0 106.909 0 109.788C0 112.666 2.39907 115 5.35847 115Z" fill="url(#paint40_linear_21_5)"/>
</g>
</g>
</mask>
<g mask="url(#mask20_21_5)">
<path id="Vector_42" d="M5.35847 115C8.31788 115 10.717 112.666 10.717 109.788C10.717 106.909 8.31788 104.575 5.35847 104.575C2.39907 104.575 0 106.909 0 109.788C0 112.666 2.39907 115 5.35847 115Z" fill="url(#paint41_linear_21_5)"/>
</g>
</g>
<g id="Group_43">
<mask id="mask21_21_5" style="mask-type:alpha" maskUnits="userSpaceOnUse" x="31" y="104" width="11" height="11">
<g id="SVGID 204">
<g id="Group_44">
<path id="Vector_43" d="M36.393 115C39.3524 115 41.7515 112.666 41.7515 109.788C41.7515 106.909 39.3524 104.575 36.393 104.575C33.4336 104.575 31.0345 106.909 31.0345 109.788C31.0345 112.666 33.4336 115 36.393 115Z" fill="url(#paint42_linear_21_5)"/>
</g>
</g>
</mask>
<g mask="url(#mask21_21_5)">
<path id="Vector_44" d="M36.393 115C39.3524 115 41.7515 112.666 41.7515 109.788C41.7515 106.909 39.3524 104.575 36.393 104.575C33.4336 104.575 31.0345 106.909 31.0345 109.788C31.0345 112.666 33.4336 115 36.393 115Z" fill="url(#paint43_linear_21_5)"/>
</g>
</g>
<g id="Group_45">
<mask id="mask22_21_5" style="mask-type:alpha" maskUnits="userSpaceOnUse" x="62" y="104" width="11" height="11">
<g id="SVGID 207">
<g id="Group_46">
<path id="Vector_45" d="M67.4275 115C70.3869 115 72.786 112.666 72.786 109.788C72.786 106.909 70.3869 104.575 67.4275 104.575C64.4681 104.575 62.069 106.909 62.069 109.788C62.069 112.666 64.4681 115 67.4275 115Z" fill="url(#paint44_linear_21_5)"/>
</g>
</g>
</mask>
<g mask="url(#mask22_21_5)">
<path id="Vector_46" d="M67.4275 115C70.3869 115 72.786 112.666 72.786 109.788C72.786 106.909 70.3869 104.575 67.4275 104.575C64.4681 104.575 62.069 106.909 62.069 109.788C62.069 112.666 64.4681 115 67.4275 115Z" fill="url(#paint45_linear_21_5)"/>
</g>
</g>
<g id="Group_47">
<mask id="mask23_21_5" style="mask-type:alpha" maskUnits="userSpaceOnUse" x="93" y="104" width="11" height="11">
<g id="SVGID 210">
<g id="Group_48">
<path id="Vector_47" d="M98.4621 115C101.421 115 103.821 112.666 103.821 109.788C103.821 106.909 101.421 104.575 98.4621 104.575C95.5027 104.575 93.1036 106.909 93.1036 109.788C93.1036 112.666 95.5027 115 98.4621 115Z" fill="url(#paint46_linear_21_5)"/>
</g>
</g>
</mask>
<g mask="url(#mask23_21_5)">
<path id="Vector_48" d="M98.4621 115C101.421 115 103.821 112.666 103.821 109.788C103.821 106.909 101.421 104.575 98.4621 104.575C95.5027 104.575 93.1036 106.909 93.1036 109.788C93.1036 112.666 95.5027 115 98.4621 115Z" fill="url(#paint47_linear_21_5)"/>
</g>
</g>
<g id="Group_49">
<mask id="mask24_21_5" style="mask-type:alpha" maskUnits="userSpaceOnUse" x="124" y="104" width="11" height="11">
<g id="SVGID 213">
<g id="Group_50">
<path id="Vector_49" d="M129.497 115C132.456 115 134.855 112.666 134.855 109.788C134.855 106.909 132.456 104.575 129.497 104.575C126.537 104.575 124.138 106.909 124.138 109.788C124.138 112.666 126.537 115 129.497 115Z" fill="url(#paint48_linear_21_5)"/>
</g>
</g>
</mask>
<g mask="url(#mask24_21_5)">
<path id="Vector_50" d="M129.497 115C132.456 115 134.855 112.666 134.855 109.788C134.855 106.909 132.456 104.575 129.497 104.575C126.537 104.575 124.138 106.909 124.138 109.788C124.138 112.666 126.537 115 129.497 115Z" fill="url(#paint49_linear_21_5)"/>
</g>
</g>
</g>
<defs>
<linearGradient id="paint0_linear_21_5" x1="56.3644" y1="131.134" x2="-13.7532" y2="-51.8429" gradientUnits="userSpaceOnUse">
<stop/>
<stop offset="1" stop-color="white"/>
</linearGradient>
<linearGradient id="paint1_linear_21_5" x1="56.3644" y1="131.134" x2="-13.7532" y2="-51.8429" gradientUnits="userSpaceOnUse">
<stop stop-color="#97C3F9"/>
<stop offset="1" stop-color="#93C1F9"/>
</linearGradient>
<linearGradient id="paint2_linear_21_5" x1="83.221" y1="120.843" x2="13.1034" y2="-62.1341" gradientUnits="userSpaceOnUse">
<stop/>
<stop offset="1" stop-color="white"/>
</linearGradient>
<linearGradient id="paint3_linear_21_5" x1="83.221" y1="120.843" x2="13.1034" y2="-62.1341" gradientUnits="userSpaceOnUse">
<stop stop-color="#97C3F9"/>
<stop offset="1" stop-color="#93C1F9"/>
</linearGradient>
<linearGradient id="paint4_linear_21_5" x1="110.077" y1="110.551" x2="39.9598" y2="-72.4254" gradientUnits="userSpaceOnUse">
<stop/>
<stop offset="1" stop-color="white"/>
</linearGradient>
<linearGradient id="paint5_linear_21_5" x1="110.077" y1="110.551" x2="39.9598" y2="-72.4254" gradientUnits="userSpaceOnUse">
<stop stop-color="#97C3F9"/>
<stop offset="1" stop-color="#93C1F9"/>
</linearGradient>
<linearGradient id="paint6_linear_21_5" x1="136.934" y1="100.259" x2="66.8161" y2="-82.7173" gradientUnits="userSpaceOnUse">
<stop/>
<stop offset="1" stop-color="white"/>
</linearGradient>
<linearGradient id="paint7_linear_21_5" x1="136.934" y1="100.259" x2="66.8161" y2="-82.7173" gradientUnits="userSpaceOnUse">
<stop stop-color="#97C3F9"/>
<stop offset="1" stop-color="#93C1F9"/>
</linearGradient>
<linearGradient id="paint8_linear_21_5" x1="163.79" y1="89.9679" x2="93.6725" y2="-93.0088" gradientUnits="userSpaceOnUse">
<stop/>
<stop offset="1" stop-color="white"/>
</linearGradient>
<linearGradient id="paint9_linear_21_5" x1="163.79" y1="89.9679" x2="93.6725" y2="-93.0088" gradientUnits="userSpaceOnUse">
<stop stop-color="#97C3F9"/>
<stop offset="1" stop-color="#93C1F9"/>
</linearGradient>
<linearGradient id="paint10_linear_21_5" x1="47.1998" y1="134.645" x2="-22.9167" y2="-48.3299" gradientUnits="userSpaceOnUse">
<stop/>
<stop offset="1" stop-color="white"/>
</linearGradient>
<linearGradient id="paint11_linear_21_5" x1="47.1998" y1="134.645" x2="-22.9167" y2="-48.3299" gradientUnits="userSpaceOnUse">
<stop stop-color="#97C3F9"/>
<stop offset="1" stop-color="#93C1F9"/>
</linearGradient>
<linearGradient id="paint12_linear_21_5" x1="74.0561" y1="124.354" x2="3.93972" y2="-58.6218" gradientUnits="userSpaceOnUse">
<stop/>
<stop offset="1" stop-color="white"/>
</linearGradient>
<linearGradient id="paint13_linear_21_5" x1="74.0561" y1="124.354" x2="3.93972" y2="-58.6218" gradientUnits="userSpaceOnUse">
<stop stop-color="#97C3F9"/>
<stop offset="1" stop-color="#93C1F9"/>
</linearGradient>
<linearGradient id="paint14_linear_21_5" x1="100.912" y1="114.062" x2="30.796" y2="-68.9132" gradientUnits="userSpaceOnUse">
<stop/>
<stop offset="1" stop-color="white"/>
</linearGradient>
<linearGradient id="paint15_linear_21_5" x1="100.912" y1="114.062" x2="30.796" y2="-68.9132" gradientUnits="userSpaceOnUse">
<stop stop-color="#97C3F9"/>
<stop offset="1" stop-color="#93C1F9"/>
</linearGradient>
<linearGradient id="paint16_linear_21_5" x1="127.769" y1="103.771" x2="57.6524" y2="-79.2046" gradientUnits="userSpaceOnUse">
<stop/>
<stop offset="1" stop-color="white"/>
</linearGradient>
<linearGradient id="paint17_linear_21_5" x1="127.769" y1="103.771" x2="57.6524" y2="-79.2046" gradientUnits="userSpaceOnUse">
<stop stop-color="#97C3F9"/>
<stop offset="1" stop-color="#93C1F9"/>
</linearGradient>
<linearGradient id="paint18_linear_21_5" x1="154.625" y1="93.4794" x2="84.5088" y2="-89.496" gradientUnits="userSpaceOnUse">
<stop/>
<stop offset="1" stop-color="white"/>
</linearGradient>
<linearGradient id="paint19_linear_21_5" x1="154.625" y1="93.4794" x2="84.5088" y2="-89.496" gradientUnits="userSpaceOnUse">
<stop stop-color="#97C3F9"/>
<stop offset="1" stop-color="#93C1F9"/>
</linearGradient>
<linearGradient id="paint20_linear_21_5" x1="38.0347" y1="138.158" x2="-32.0829" y2="-44.8187" gradientUnits="userSpaceOnUse">
<stop/>
<stop offset="1" stop-color="white"/>
</linearGradient>
<linearGradient id="paint21_linear_21_5" x1="38.0347" y1="138.158" x2="-32.0829" y2="-44.8187" gradientUnits="userSpaceOnUse">
<stop stop-color="#97C3F9"/>
<stop offset="1" stop-color="#93C1F9"/>
</linearGradient>
<linearGradient id="paint22_linear_21_5" x1="64.8912" y1="127.866" x2="-5.22639" y2="-55.1103" gradientUnits="userSpaceOnUse">
<stop/>
<stop offset="1" stop-color="white"/>
</linearGradient>
<linearGradient id="paint23_linear_21_5" x1="64.8912" y1="127.866" x2="-5.22639" y2="-55.1103" gradientUnits="userSpaceOnUse">
<stop stop-color="#97C3F9"/>
<stop offset="1" stop-color="#93C1F9"/>
</linearGradient>
<linearGradient id="paint24_linear_21_5" x1="91.7475" y1="117.575" x2="21.63" y2="-65.4017" gradientUnits="userSpaceOnUse">
<stop/>
<stop offset="1" stop-color="white"/>
</linearGradient>
<linearGradient id="paint25_linear_21_5" x1="91.7475" y1="117.575" x2="21.63" y2="-65.4017" gradientUnits="userSpaceOnUse">
<stop stop-color="#97C3F9"/>
<stop offset="1" stop-color="#93C1F9"/>
</linearGradient>
<linearGradient id="paint26_linear_21_5" x1="118.604" y1="107.283" x2="48.4863" y2="-75.6933" gradientUnits="userSpaceOnUse">
<stop/>
<stop offset="1" stop-color="white"/>
</linearGradient>
<linearGradient id="paint27_linear_21_5" x1="118.604" y1="107.283" x2="48.4863" y2="-75.6933" gradientUnits="userSpaceOnUse">
<stop stop-color="#97C3F9"/>
<stop offset="1" stop-color="#93C1F9"/>
</linearGradient>
<linearGradient id="paint28_linear_21_5" x1="145.46" y1="96.9919" x2="75.3427" y2="-85.9848" gradientUnits="userSpaceOnUse">
<stop/>
<stop offset="1" stop-color="white"/>
</linearGradient>
<linearGradient id="paint29_linear_21_5" x1="145.46" y1="96.9919" x2="75.3427" y2="-85.9848" gradientUnits="userSpaceOnUse">
<stop stop-color="#97C3F9"/>
<stop offset="1" stop-color="#93C1F9"/>
</linearGradient>
<linearGradient id="paint30_linear_21_5" x1="28.8699" y1="141.67" x2="-41.2478" y2="-41.3067" gradientUnits="userSpaceOnUse">
<stop/>
<stop offset="1" stop-color="white"/>
</linearGradient>
<linearGradient id="paint31_linear_21_5" x1="28.8699" y1="141.67" x2="-41.2478" y2="-41.3067" gradientUnits="userSpaceOnUse">
<stop stop-color="#97C3F9"/>
<stop offset="1" stop-color="#93C1F9"/>
</linearGradient>
<linearGradient id="paint32_linear_21_5" x1="55.7263" y1="131.378" x2="-14.3913" y2="-51.5982" gradientUnits="userSpaceOnUse">
<stop/>
<stop offset="1" stop-color="white"/>
</linearGradient>
<linearGradient id="paint33_linear_21_5" x1="55.7263" y1="131.378" x2="-14.3913" y2="-51.5982" gradientUnits="userSpaceOnUse">
<stop stop-color="#97C3F9"/>
<stop offset="1" stop-color="#93C1F9"/>
</linearGradient>
<linearGradient id="paint34_linear_21_5" x1="82.5826" y1="121.087" x2="12.4651" y2="-61.8897" gradientUnits="userSpaceOnUse">
<stop/>
<stop offset="1" stop-color="white"/>
</linearGradient>
<linearGradient id="paint35_linear_21_5" x1="82.5826" y1="121.087" x2="12.4651" y2="-61.8897" gradientUnits="userSpaceOnUse">
<stop stop-color="#97C3F9"/>
<stop offset="1" stop-color="#93C1F9"/>
</linearGradient>
<linearGradient id="paint36_linear_21_5" x1="109.439" y1="110.795" x2="39.3214" y2="-72.1813" gradientUnits="userSpaceOnUse">
<stop/>
<stop offset="1" stop-color="white"/>
</linearGradient>
<linearGradient id="paint37_linear_21_5" x1="109.439" y1="110.795" x2="39.3214" y2="-72.1813" gradientUnits="userSpaceOnUse">
<stop stop-color="#97C3F9"/>
<stop offset="1" stop-color="#93C1F9"/>
</linearGradient>
<linearGradient id="paint38_linear_21_5" x1="136.295" y1="100.504" x2="66.1778" y2="-82.4728" gradientUnits="userSpaceOnUse">
<stop/>
<stop offset="1" stop-color="white"/>
</linearGradient>
<linearGradient id="paint39_linear_21_5" x1="136.295" y1="100.504" x2="66.1778" y2="-82.4728" gradientUnits="userSpaceOnUse">
<stop stop-color="#97C3F9"/>
<stop offset="1" stop-color="#93C1F9"/>
</linearGradient>
<linearGradient id="paint40_linear_21_5" x1="19.705" y1="145.182" x2="-50.4126" y2="-37.7947" gradientUnits="userSpaceOnUse">
<stop/>
<stop offset="1" stop-color="white"/>
</linearGradient>
<linearGradient id="paint41_linear_21_5" x1="19.705" y1="145.182" x2="-50.4126" y2="-37.7947" gradientUnits="userSpaceOnUse">
<stop stop-color="#97C3F9"/>
<stop offset="1" stop-color="#93C1F9"/>
</linearGradient>
<linearGradient id="paint42_linear_21_5" x1="46.5614" y1="134.89" x2="-23.5562" y2="-48.0862" gradientUnits="userSpaceOnUse">
<stop/>
<stop offset="1" stop-color="white"/>
</linearGradient>
<linearGradient id="paint43_linear_21_5" x1="46.5614" y1="134.89" x2="-23.5562" y2="-48.0862" gradientUnits="userSpaceOnUse">
<stop stop-color="#97C3F9"/>
<stop offset="1" stop-color="#93C1F9"/>
</linearGradient>
<linearGradient id="paint44_linear_21_5" x1="73.4177" y1="124.599" x2="3.30023" y2="-58.3776" gradientUnits="userSpaceOnUse">
<stop/>
<stop offset="1" stop-color="white"/>
</linearGradient>
<linearGradient id="paint45_linear_21_5" x1="73.4177" y1="124.599" x2="3.30023" y2="-58.3776" gradientUnits="userSpaceOnUse">
<stop stop-color="#97C3F9"/>
<stop offset="1" stop-color="#93C1F9"/>
</linearGradient>
<linearGradient id="paint46_linear_21_5" x1="100.274" y1="114.307" x2="30.1566" y2="-68.6692" gradientUnits="userSpaceOnUse">
<stop/>
<stop offset="1" stop-color="white"/>
</linearGradient>
<linearGradient id="paint47_linear_21_5" x1="100.274" y1="114.307" x2="30.1566" y2="-68.6692" gradientUnits="userSpaceOnUse">
<stop stop-color="#97C3F9"/>
<stop offset="1" stop-color="#93C1F9"/>
</linearGradient>
<linearGradient id="paint48_linear_21_5" x1="127.131" y1="104.016" x2="57.013" y2="-78.9607" gradientUnits="userSpaceOnUse">
<stop/>
<stop offset="1" stop-color="white"/>
</linearGradient>
<linearGradient id="paint49_linear_21_5" x1="127.131" y1="104.016" x2="57.013" y2="-78.9607" gradientUnits="userSpaceOnUse">
<stop stop-color="#97C3F9"/>
<stop offset="1" stop-color="#93C1F9"/>
</linearGradient>
</defs>
</svg>
